# xmcd
#
# Track frame offsets:
#	150
#	10475
#	20562
#	31975
#	39775
#	58400
#	68525
#	80725
#	90025
#	100150
#	109175
#	122375
#	133637
#	141925
#	151675
#	163050
#	173437
#	186187
#	197275
#	210900
#	220825
#	228962
#	236512
#	249262
#	257137
#
# Disc length: 3541
#
# Revision: 2
# Processed by: cddbd v1.5.1PL0 Copyright (c) Steve Scherf et al.
# Submitted via: dBpowerAMP V4.0
# Normalized: r1:TDELIM( - )
#
DISCID=390dd319
DTITLE=Various Artist - 101 Blues and Soul Classics Volume 1
DYEAR=1900
DGENRE=blues
TTITLE0=Don Gardner and Dee Dee Ford - I Need Your Loving
TTITLE1=Don and Juan - What's your name
TTITLE2=Maxine Brown - All In My Mind
TTITLE3=Lee Dorsey - Ya Ya
TTITLE4=Swamp Dogg - Mama's Baby Daddy's Maybe
TTITLE5=Irma Thomas - I Wish Someone Would Care
TTITLE6=Taheel Slim and Little Anne - It's Too Late
TTITLE7=Inez and Charlie Foxx - Mocking Bird
TTITLE8=Sammy Turner - Lavender Blue
TTITLE9=Jmes Ray - If You Gotta Make A Dool Of Somebody
TTITLE10=Elmore James - Dust My Blues
TTITLE11=John Lee Hooker - Boom Boom
TTITLE12=Clovers - Love Potion Number 9
TTITLE13=Chantels - Look In My Eyes
TTITLE14=Sam Cooke - You Send Me
TTITLE15=Esquires - Get On Up
TTITLE16=Doris Duke - To The Other Woman
TTITLE17=Lloyd Price - I'm Gonna Get Married
TTITLE18=Moonglows - Most Of All
TTITLE19=Eldorado's - At My Front Door
TTITLE20=Crests - The Angels Listening
TTITLE21=Eugene Church - Pretty Girls Everywhere
TTITLE22=Jack - Why Don't You Write Me
TTITLE23=Marvin and Johnny - Cherry Pie
TTITLE24=Little Richard - Short Fat Fanny
EXTD=
EXTT0=
EXTT1=
EXTT2=
EXTT3=
EXTT4=
EXTT5=
EXTT6=
EXTT7=
EXTT8=
EXTT9=
EXTT10=
EXTT11=
EXTT12=
EXTT13=
EXTT14=
EXTT15=
EXTT16=
EXTT17=
EXTT18=
EXTT19=
EXTT20=
EXTT21=
EXTT22=
EXTT23=
EXTT24=
PLAYORDER=
